<?xml version="1.0" ?>
<!DOCTYPE svg  PUBLIC '-//W3C//DTD SVG 1.1//EN'  'http://www.w3.org/Graphics/SVG/1.1/DTD/svg11.dtd'>
<svg 
xmlns="http://www.w3.org/2000/svg" 
xmlns:xlink="http://www.w3.org/1999/xlink" 
xmlns:serif="http://www.serif.com/" 
width="100%" 
height="100%" 
viewBox="0 0 512 512" 
version="1.1" 
xml:space="preserve" 
style="fill-rule:evenodd;clip-rule:evenodd;stroke-linejoin:round;stroke-miterlimit:2;"
fill="#fff"
>
<g transform="matrix(1,0,0,1,-2248,-562)"><g id="Icons"><path d="M2494,876.709L2494,999.835L2393.63,1049.02C2389.46,1051.07 2387.24,1055.73 2388.29,1060.26C2389.34,1064.79 2393.38,1068 2398.03,1068L2609.97,1068C2614.62,1068 2618.66,1064.79 2619.71,1060.26C2620.76,1055.73 2618.54,1051.07 2614.37,1049.02L2514,999.835L2514,876.709C2575.27,871.619 2623.47,820.219 2623.47,757.649L2623.47,578C2623.47,572.477 2619,568 2613.47,568L2394.53,568C2389,568 2384.53,572.477 2384.53,578L2384.53,757.649C2384.53,820.219 2432.73,871.619 2494,876.709ZM2441.16,1048L2504,1017.21C2504,1017.21 2566.84,1048 2566.84,1048L2441.16,1048ZM2603.47,588L2603.47,757.649C2603.47,812.55 2558.9,857.123 2504,857.123C2449.1,857.123 2404.53,812.55 2404.53,757.649L2404.53,588L2603.47,588ZM2531.9,827.45C2565.35,815.878 2589.4,784.088 2589.4,746.727C2589.4,746.727 2589.4,689 2589.4,689C2589.4,683.481 2584.91,679 2579.4,679C2573.88,679 2569.4,683.481 2569.4,689L2569.4,746.727C2569.4,775.34 2550.98,799.687 2525.36,808.55C2520.15,810.354 2517.38,816.054 2519.18,821.27C2520.99,826.486 2526.69,829.255 2531.9,827.45Z"/></g></g></svg>